# xmcd
#
# Track frame offsets:
#	150
#	14835
#	29125
#	50662
#	70647
#	85875
#	104955
#	118350
#	135152
#	148575
#	170925
#
# Disc length: 2476 seconds
#
# Revision: 1
# Processed by: cddbd v1.5.2PL0 Copyright (c) Steve Scherf et al.
# Submitted via: EZCDAudioConverter 6.0.7.1
#
DISCID=ae09aa0b
DTITLE=John Denver - Take Me Home Country Roads
DYEAR=1997
DGENRE=Country
TTITLE0=Take Me Home, Country Roads
TTITLE1=Homegrown Tomatoes
TTITLE2=Eagles and Horses
TTITLE3=Ponies
TTITLE4=High, Wide and Handsome
TTITLE5=Hold On To Me
TTITLE6=Whispering Jesse
TTITLE7=Never A Doubt
TTITLE8=Eagle and The Hawk
TTITLE9=I Watch You Sleeping
TTITLE10=For You
EXTD=
EXTT0=
EXTT1=
EXTT2=
EXTT3=
EXTT4=
EXTT5=
EXTT6=
EXTT7=
EXTT8=
EXTT9=
EXTT10=
PLAYORDER=
